<?xml version="1.0" encoding="UTF-8" standalone="no"?>
<svg
   xmlns:dc="http://purl.org/dc/elements/1.1/"
   xmlns:cc="http://creativecommons.org/ns#"
   xmlns:rdf="http://www.w3.org/1999/02/22-rdf-syntax-ns#"
   xmlns:svg="http://www.w3.org/2000/svg"
   xmlns="http://www.w3.org/2000/svg"
   xmlns:sodipodi="http://sodipodi.sourceforge.net/DTD/sodipodi-0.dtd"
   xmlns:inkscape="http://www.inkscape.org/namespaces/inkscape"
   id="svg3147"
   viewBox="0 0 1024 1024"
   height="1024"
   width="1024"
   version="1.1"
   inkscape:version="0.91 r13725"
   sodipodi:docname="uEA08-scale-color.svg">
  <sodipodi:namedview
     pagecolor="#ffffff"
     bordercolor="#666666"
     borderopacity="1"
     objecttolerance="10"
     gridtolerance="10"
     guidetolerance="10"
     inkscape:pageopacity="0"
     inkscape:pageshadow="2"
     inkscape:window-width="1920"
     inkscape:window-height="1016"
     id="namedview4567"
     showgrid="true"
     inkscape:snap-bbox="true"
     inkscape:bbox-paths="true"
     inkscape:bbox-nodes="true"
     inkscape:zoom="0.32"
     inkscape:cx="115.16035"
     inkscape:cy="541.66518"
     inkscape:window-x="0"
     inkscape:window-y="27"
     inkscape:window-maximized="1"
     inkscape:current-layer="layer2"
     inkscape:snap-object-midpoints="true">
    <inkscape:grid
       type="xygrid"
       id="grid5109"
       spacingx="4"
       spacingy="4" />
  </sodipodi:namedview>
  <metadata
     id="metadata4517">
    <rdf:RDF>
      <cc:Work
         rdf:about="">
        <dc:format>image/svg+xml</dc:format>
        <dc:type
           rdf:resource="http://purl.org/dc/dcmitype/StillImage" />
        <dc:title></dc:title>
      </cc:Work>
    </rdf:RDF>
  </metadata>
  <defs
     id="defs4515" />
  <g
     inkscape:groupmode="layer"
     id="layer2"
     inkscape:label="dist"
     style="display:inline">
    <path
       style="color:#000000;clip-rule:nonzero;display:inline;overflow:visible;visibility:visible;opacity:1;isolation:auto;mix-blend-mode:normal;color-interpolation:sRGB;color-interpolation-filters:linearRGB;solid-color:#000000;solid-opacity:1;fill:#000000;fill-opacity:1;fill-rule:evenodd;stroke:#000000;stroke-width:1px;stroke-linecap:butt;stroke-linejoin:miter;stroke-miterlimit:4;stroke-dasharray:none;stroke-dashoffset:0;stroke-opacity:1;color-rendering:auto;image-rendering:auto;shape-rendering:auto;text-rendering:auto;enable-background:accumulate"
       d="M 591.25 24.5 C 305.74996 24.5 142.48248 134.11541 137.45117 233.88867 C 131.27749 356.31547 377.125 326.40321 377.125 401.87891 C 377.125 477.35461 20.25 401.87868 20.25 552.83008 C 20.25 614.11724 66.005513 675.14706 140 726.13086 L 140 724 L 220 724 L 220 772.06055 C 245.05797 784.10789 271.84614 795.13762 300 804.94727 L 300 584 L 380 584 L 380 828.55078 C 405.99324 834.90209 432.73973 840.20569 460 844.34961 L 460 444 L 540 444 L 540 852.9668 C 556.99494 854.03927 574.09433 854.64141 591.25 854.73242 C 601.12342 854.7848 610.85835 854.61337 620.45703 854.23242 L 620.45703 284 L 700.45703 284 L 700.45703 845.59375 C 728.56392 840.48824 755.11856 833.2978 780 824.16992 L 780 144 L 860 144 L 860 784.54883 C 890.80336 764.61446 917.60763 740.78874 940 713.52539 L 940 177.16797 C 869.99015 78.021005 753.74207 24.5 591.25 24.5 z M 520 184 A 80 80 0 0 1 600 264 A 80 80 0 0 1 520 344 A 80 80 0 0 1 440 264 A 80 80 0 0 1 520 184 z "
       id="path5098" />
    <path
       style="color:#000000;clip-rule:nonzero;display:inline;overflow:visible;visibility:visible;opacity:1;isolation:auto;mix-blend-mode:normal;color-interpolation:sRGB;color-interpolation-filters:linearRGB;solid-color:#000000;solid-opacity:1;fill:#000000;fill-opacity:1;fill-rule:nonzero;stroke:none;stroke-width:1px;stroke-linecap:butt;stroke-linejoin:miter;stroke-miterlimit:4;stroke-dasharray:none;stroke-dashoffset:0;stroke-opacity:1;color-rendering:auto;image-rendering:auto;shape-rendering:auto;text-rendering:auto;enable-background:accumulate"
       d="M 0,944 6.293617e-5,1024 1020,1024 1019.9999,944 0,944 Z"
       id="path4152"
       inkscape:connector-curvature="0" />
  </g>
</svg>
