<?xml version="1.0" encoding="UTF-8" standalone="no"?>
<svg
   xmlns:dc="http://purl.org/dc/elements/1.1/"
   xmlns:cc="http://creativecommons.org/ns#"
   xmlns:rdf="http://www.w3.org/1999/02/22-rdf-syntax-ns#"
   xmlns:svg="http://www.w3.org/2000/svg"
   xmlns="http://www.w3.org/2000/svg"
   xmlns:sodipodi="http://sodipodi.sourceforge.net/DTD/sodipodi-0.dtd"
   xmlns:inkscape="http://www.inkscape.org/namespaces/inkscape"
   id="svg3147"
   viewBox="0 0 999 1024"
   height="1024"
   width="999"
   version="1.1"
   inkscape:version="0.91 r13725"
   sodipodi:docname="uEA0A-constraint.svg">
  <sodipodi:namedview
     pagecolor="#ffffff"
     bordercolor="#666666"
     borderopacity="1"
     objecttolerance="10"
     gridtolerance="10"
     guidetolerance="10"
     inkscape:pageopacity="0"
     inkscape:pageshadow="2"
     inkscape:window-width="1440"
     inkscape:window-height="775"
     id="namedview4567"
     showgrid="true"
     inkscape:snap-bbox="true"
     inkscape:bbox-paths="true"
     inkscape:bbox-nodes="true"
     inkscape:zoom="0.32593203"
     inkscape:cx="860.96714"
     inkscape:cy="383.0412"
     inkscape:window-x="0"
     inkscape:window-y="1"
     inkscape:window-maximized="1"
     inkscape:current-layer="layer2"
     inkscape:object-paths="true"
     inkscape:snap-intersection-paths="true"
     inkscape:object-nodes="true"
     inkscape:snap-smooth-nodes="true">
    <inkscape:grid
       type="xygrid"
       id="grid5109"
       spacingx="4"
       spacingy="4" />
  </sodipodi:namedview>
  <metadata
     id="metadata4517">
    <rdf:RDF>
      <cc:Work
         rdf:about="">
        <dc:format>image/svg+xml</dc:format>
        <dc:type
           rdf:resource="http://purl.org/dc/dcmitype/StillImage" />
        <dc:title />
      </cc:Work>
    </rdf:RDF>
  </metadata>
  <defs
     id="defs4515" />
  <g
     inkscape:groupmode="layer"
     id="layer2"
     inkscape:label="dist"
     style="display:inline">
    <path
       style="color:#000000;clip-rule:nonzero;display:inline;overflow:visible;visibility:visible;opacity:1;isolation:auto;mix-blend-mode:normal;color-interpolation:sRGB;color-interpolation-filters:linearRGB;solid-color:#000000;solid-opacity:1;fill:#000000;fill-opacity:1;fill-rule:nonzero;stroke:none;stroke-width:1.5;stroke-linecap:round;stroke-linejoin:round;stroke-miterlimit:4;stroke-dasharray:none;stroke-dashoffset:0;stroke-opacity:1;color-rendering:auto;image-rendering:auto;shape-rendering:auto;text-rendering:auto;enable-background:accumulate"
       d="M 640 24 L 640 184 L 760 184 L 760 24 L 640 24 z M 220.86328 166.86328 L 136.00977 251.71484 L 249.14648 364.85352 L 334 280 L 220.86328 166.86328 z M 640 224 L 640 384 L 760 384 L 760 224 L 640 224 z M 366.86328 310.86328 L 282.00977 395.71484 L 395.14648 508.85352 L 480 424 L 366.86328 310.86328 z M 680 424 A 280 280 0 0 0 400 704 A 280 280 0 0 0 680 984 A 280 280 0 0 0 960 704 A 280 280 0 0 0 680 424 z M 680 544 A 160 160 0 0 1 840 704 A 160 160 0 0 1 680 864 A 160 160 0 0 1 520 704 A 160 160 0 0 1 680 544 z M 0 664 L 0 784 L 160 784 L 160 664 L 0 664 z M 200 664 L 200 784 L 360 784 L 360 664 L 200 664 z "
       id="path4327" />
  </g>
</svg>
