<?xml version="1.0" encoding="UTF-8" standalone="no"?>
<svg
   xmlns:dc="http://purl.org/dc/elements/1.1/"
   xmlns:cc="http://creativecommons.org/ns#"
   xmlns:rdf="http://www.w3.org/1999/02/22-rdf-syntax-ns#"
   xmlns:svg="http://www.w3.org/2000/svg"
   xmlns="http://www.w3.org/2000/svg"
   xmlns:sodipodi="http://sodipodi.sourceforge.net/DTD/sodipodi-0.dtd"
   xmlns:inkscape="http://www.inkscape.org/namespaces/inkscape"
   id="svg3147"
   viewBox="0 0 1024 1024"
   height="1024"
   width="1024"
   version="1.1"
   inkscape:version="0.91 r13725"
   sodipodi:docname="scale-log.svg">
  <sodipodi:namedview
     pagecolor="#ffffff"
     bordercolor="#666666"
     borderopacity="1"
     objecttolerance="10"
     gridtolerance="10"
     guidetolerance="10"
     inkscape:pageopacity="0"
     inkscape:pageshadow="2"
     inkscape:window-width="1920"
     inkscape:window-height="1016"
     id="namedview4567"
     showgrid="true"
     inkscape:snap-bbox="true"
     inkscape:bbox-paths="true"
     inkscape:bbox-nodes="true"
     inkscape:zoom="0.4609375"
     inkscape:cx="321.89455"
     inkscape:cy="620.14391"
     inkscape:window-x="0"
     inkscape:window-y="27"
     inkscape:window-maximized="1"
     inkscape:current-layer="layer2">
    <inkscape:grid
       type="xygrid"
       id="grid5109"
       spacingx="4"
       spacingy="4" />
  </sodipodi:namedview>
  <metadata
     id="metadata4517">
    <rdf:RDF>
      <cc:Work
         rdf:about="">
        <dc:format>image/svg+xml</dc:format>
        <dc:type
           rdf:resource="http://purl.org/dc/dcmitype/StillImage" />
        <dc:title></dc:title>
      </cc:Work>
    </rdf:RDF>
  </metadata>
  <defs
     id="defs4515" />
  <g
     inkscape:groupmode="layer"
     id="layer2"
     inkscape:label="dist"
     style="display:inline">
    <path
       style="color:#000000;clip-rule:nonzero;display:inline;overflow:visible;visibility:visible;opacity:1;isolation:auto;mix-blend-mode:normal;color-interpolation:sRGB;color-interpolation-filters:linearRGB;solid-color:#000000;solid-opacity:1;fill:#000000;fill-opacity:1;fill-rule:nonzero;stroke:none;stroke-width:1px;stroke-linecap:butt;stroke-linejoin:miter;stroke-miterlimit:4;stroke-dasharray:none;stroke-dashoffset:0;stroke-opacity:1;color-rendering:auto;image-rendering:auto;shape-rendering:auto;text-rendering:auto;enable-background:accumulate"
       d="M 1020 7.765625 C 995.59433 72.801678 969.68569 141.14289 940 209.97266 L 940 864 L 1020 864 L 1020 7.765625 z M 780 144 L 780 354.06836 C 809.7064 301.56767 835.97994 247.15373 860 192.30273 L 860 144 L 780 144 z M 620.45703 284 L 620.45703 571.72852 C 649.36632 541.85602 675.88165 510.15152 700.45703 477.04688 L 700.45703 284 L 620.45703 284 z M 860 375.17188 C 836.40088 418.09468 810.55055 460.29322 781.84375 501.03711 C 781.23415 501.90232 780.61233 502.76116 780 503.625 L 780 864 L 860 864 L 860 375.17188 z M 460 444 L 460 700.07617 C 488.36277 682.96931 514.9707 664.44179 540 644.66406 L 540 444 L 460 444 z M 300 584 L 300 773.73438 C 327.97236 764.31203 354.61713 753.78687 380 742.22266 L 380 584 L 300 584 z M 700.45703 602.64844 C 675.64478 629.84199 649.03891 655.89426 620.45703 680.50781 L 620.45703 864 L 700.45703 864 L 700.45703 602.64844 z M 140 724 L 140 812.47266 C 167.7204 808.09555 194.36598 802.81078 220 796.67578 L 220 724 L 140 724 z M 540 742.14648 C 514.678 759.32286 488.04457 775.45759 460 790.39453 L 460 864 L 540 864 L 540 742.14648 z M 380 828.05664 C 354.38566 838.62529 327.7347 848.27296 300 856.91602 L 300 864 L 380 864 L 380 828.05664 z M 0 944 L 0 1024 L 1020 1024 L 1020 944 L 0 944 z "
       id="path4152" />
  </g>
</svg>
